<svg xmlns="http://www.w3.org/2000/svg" viewBox="0 0 590 591">
  <defs/>
  <defs>
    <linearGradient id="a" x1="0%" x2="98.481%" y1="17.365%" y2="0%">
      <stop offset="0%" stop-color="rgb(0,0,0)"/>
      <stop offset="17%" stop-color="rgb(2,60,95)"/>
      <stop offset="42%" stop-color="rgb(3,119,190)"/>
    </linearGradient>
    <linearGradient id="b" x1="17.365%" x2="0%" y1="98.481%" y2="0%">
      <stop offset="0%" stop-color="rgb(0,0,0)"/>
      <stop offset="16%" stop-color="rgb(2,77,115)"/>
      <stop offset="41%" stop-color="rgb(3,154,229)"/>
    </linearGradient>
    <linearGradient id="c" x1="0%" x2="93.969%" y1="0%" y2="34.202%">
      <stop offset="0%" stop-color="rgb(0,0,0)"/>
      <stop offset="28%" stop-color="rgb(2,77,115)"/>
      <stop offset="70%" stop-color="rgb(3,154,229)"/>
    </linearGradient>
    <linearGradient id="d" x1="86.603%" x2="0%" y1="50%" y2="0%">
      <stop offset="0%" stop-color="rgb(0,0,0)"/>
      <stop offset="28%" stop-color="rgb(2,60,95)"/>
      <stop offset="70%" stop-color="rgb(3,119,190)"/>
    </linearGradient>
    <linearGradient id="e" x1="98.481%" x2="0%" y1="17.365%" y2="0%">
      <stop offset="0%" stop-color="rgb(0,0,0)"/>
      <stop offset="70%" stop-color="rgb(3,154,229)"/>
    </linearGradient>
    <linearGradient id="f" x1="0%" x2="50%" y1="0%" y2="86.603%">
      <stop offset="0%" stop-color="rgb(0,0,0)"/>
      <stop offset="80%" stop-color="rgb(129,212,250)"/>
    </linearGradient>
    <linearGradient id="g" x1="86.603%" x2="0%" y1="0%" y2="50%">
      <stop offset="0%" stop-color="rgb(0,0,0)"/>
      <stop offset="70%" stop-color="rgb(3,154,229)"/>
    </linearGradient>
    <linearGradient id="h" x1="0%" x2="93.969%" y1="34.202%" y2="0%">
      <stop offset="0%" stop-color="rgb(0,0,0)"/>
      <stop offset="32%" stop-color="rgb(21,91,123)"/>
      <stop offset="79%" stop-color="rgb(42,182,246)"/>
    </linearGradient>
  </defs>
  <path fill="rgb(3, 119, 190)" fill-rule="evenodd" d="M278.397 39.437l-91.102 82.804-7.449 33.904L167 156l11.626-58.876L264.913.256l324.281 132.295-57.378 28.244L278.397 39.437z"/>
  <path fill="url(#a)" d="M278.397 39.437l-91.102 82.804-7.449 33.904L167 156l11.626-58.876L264.913.256l324.281 132.295-57.378 28.244L278.397 39.437z"/>
  <path fill="rgb(179, 229, 252)" fill-rule="evenodd" d="M188 118l75 190 14-269-89 79z"/>
  <path fill="rgb(226, 245, 254)" fill-rule="evenodd" d="M277 39l-15 266 314.534-122.612L277 39z"/>
  <path fill="url(#b)" d="M277 39l-15 266 314.534-122.612L277 39z"/>
  <path fill="rgb(3, 154, 229)" fill-rule="evenodd" d="M261 303l75-27 156.789 189.307L261 303z"/>
  <path fill="url(#c)" d="M261 303l75-27 156.789 189.307L261 303z"/>
  <path fill="rgb(3, 119, 190)" fill-rule="evenodd" d="M308 393l117.078 197.45L493 465l-185-72z"/>
  <path fill="url(#d)" d="M308 393l117.078 197.45L493 465l-185-72z"/>
  <path fill="rgb(42, 182, 246)" fill-rule="evenodd" d="M26.82 157.124L133 325l46.846-168.855-153.026.979z"/>
  <path fill="url(#e)" d="M26.82 157.124L133 325l46.846-168.855-153.026.979z"/>
  <path fill="rgb(129, 212, 250)" fill-rule="evenodd" d="M188 118l-55 207 117-52-62-155z"/>
  <path fill="url(#f)" d="M188 118l-55 207 117-52-62-155z"/>
  <path fill="rgb(3, 154, 229)" fill-rule="evenodd" d="M-.01 219.775L27 157l35 55-62.01 7.775z"/>
  <path fill="url(#g)" d="M-.01 219.775L27 157l35 55-62.01 7.775z"/>
  <path fill="rgb(42, 182, 246)" fill-rule="evenodd" d="M133 325l116.307-52.9 12.59 31.169L493 465 133 325z"/>
  <path fill="url(#h)" d="M133 325l116.307-52.9 12.59 31.169L493 465 133 325z"/>
</svg>
