<svg xmlns="http://www.w3.org/2000/svg" xmlns:xlink="http://www.w3.org/1999/xlink" width="0" height="0" class="hidden">
  <symbol viewBox="0 0 512 512" id="facebook">
    <g>
      <path d="M278.5 219.5v-26.998c0-12.187 2.946-18.002 21.864-18.002H323.5v-45h-39.007c-48.535 0-63.993 21.553-63.993 59.744V219.5h-33v46h33v136h58v-136h40.216l5.385-46H278.5z"></path>
      <path d="M254.5 16.5c-131.996 0-239 107.004-239 239s107.004 239 239 239 239-107.004 239-239-107.004-239-239-239zm158.392 397.392C370.584 456.2 314.333 479.5 254.5 479.5s-116.084-23.3-158.392-65.608C53.8 371.584 30.5 315.333 30.5 255.5S53.8 139.416 96.108 97.108C138.416 54.8 194.667 31.5 254.5 31.5s116.084 23.3 158.392 65.608C455.2 139.416 478.5 195.667 478.5 255.5s-23.3 116.084-65.608 158.392z"></path>
    </g>
  </symbol>
  <symbol viewBox="0 0 512 512" id="github">
    <path d="M254.5 16.5c-131.996 0-239 107.004-239 239s107.004 239 239 239 239-107.004 239-239-107.004-239-239-239zm158.392 397.392C370.584 456.2 314.333 479.5 254.5 479.5s-116.084-23.3-158.392-65.608C53.8 371.584 30.5 315.333 30.5 255.5S53.8 139.416 96.108 97.108C138.416 54.8 194.667 31.5 254.5 31.5s116.084 23.3 158.392 65.608C455.2 139.416 478.5 195.667 478.5 255.5s-23.3 116.084-65.608 158.392z"></path>
    <path d="M254 118.205c-75.969 0-137.563 61.594-137.563 137.563 0 60.788 39.412 112.341 94.079 130.527 6.877 1.26 9.387-2.989 9.387-6.616 0-3.275-.126-14.122-.193-25.608-38.253 8.312-46.339-16.221-46.339-16.221-6.263-15.886-15.273-20.117-15.273-20.117-12.502-8.53.948-8.363.948-8.363 13.812.957 21.083 14.173 21.083 14.173 12.275 21.024 32.208 14.945 40.033 11.419 1.25-8.866 4.81-14.945 8.732-18.371-30.537-3.476-62.66-15.281-62.66-67.992 0-15.029 5.365-27.287 14.147-36.918-1.402-3.493-6.138-17.489 1.36-36.422 0 0 11.536-3.694 37.833 14.106 10.965-3.065 22.728-4.576 34.424-4.626 11.687.051 23.459 1.578 34.441 4.643 26.247-17.817 37.8-14.106 37.8-14.106 7.523 18.95 2.788 32.93 1.377 36.406 8.816 9.63 14.139 21.889 14.139 36.918 0 52.846-32.174 64.483-62.82 67.892 4.954 4.265 9.337 12.628 9.337 25.457 0 18.388-.185 33.215-.185 37.749 0 3.661 2.502 7.943 9.471 6.599 54.626-18.22 94.004-69.772 94.004-130.527.001-75.971-61.593-137.565-137.562-137.565z"></path>
  </symbol>
  <symbol viewBox="0 0 512 512" id="linkedin">
    <g>
      <path d="M374.5 369.5v-88.875c0-45.875-24.888-67.158-57.17-67.158-26.022 0-37.83 14.666-44.83 24.859V217.5h-49v152h49v-86.64c0-4.471.608-8.853 1.95-12.072 3.577-8.943 12.066-18.153 25.659-18.153 17.795 0 25.391 13.682 25.391 33.713V369.5h49zM171.684 141.034c-16.097 0-26.559 11.299-26.559 26.233 0 14.666 10.194 26.233 25.933 26.233h.357c16.365 0 26.559-11.567 26.559-26.233-.357-15.023-10.193-26.233-26.29-26.233zM145.5 217.5h49v152h-49z"></path>
      <path d="M254.5 16.5c-131.996 0-239 107.004-239 239s107.004 239 239 239 239-107.004 239-239-107.004-239-239-239zm158.392 397.392C370.584 456.2 314.333 479.5 254.5 479.5s-116.084-23.3-158.392-65.608C53.8 371.584 30.5 315.333 30.5 255.5S53.8 139.416 96.108 97.108C138.416 54.8 194.667 31.5 254.5 31.5s116.084 23.3 158.392 65.608C455.2 139.416 478.5 195.667 478.5 255.5s-23.3 116.084-65.608 158.392z"></path>
    </g>
  </symbol>
</svg>