<?xml version="1.0" standalone="no"?>
<!DOCTYPE svg PUBLIC "-//W3C//DTD SVG 20010904//EN"
 "http://www.w3.org/TR/2001/REC-SVG-20010904/DTD/svg10.dtd">
<svg version="1.0" xmlns="http://www.w3.org/2000/svg"
 width="589.000000pt" height="589.000000pt" viewBox="0 0 589.000000 589.000000"
 preserveAspectRatio="xMidYMid meet">
<metadata>
Created by potrace 1.11, written by Peter Selinger 2001-2013
</metadata>
<g transform="translate(0.000000,589.000000) scale(0.100000,-0.100000)"
fill="#000000" stroke="none">
<path d="M2633 5875 c-8 -13 -100 -118 -188 -215 -28 -30 -82 -91 -120 -135
-39 -44 -79 -89 -90 -101 -11 -11 -41 -45 -67 -75 -26 -31 -64 -74 -85 -97
-21 -22 -61 -67 -89 -99 -28 -32 -86 -98 -129 -146 l-78 -88 -57 -285 c-32
-156 -59 -287 -62 -289 -3 -3 -317 -7 -698 -10 -652 -4 -695 -6 -704 -22 -6
-10 -37 -79 -68 -153 -32 -74 -65 -148 -72 -165 -13 -28 -72 -166 -110 -259
l-16 -38 48 7 c26 3 58 8 72 10 14 2 48 7 75 10 28 3 84 10 125 15 41 5 93 12
115 15 49 6 121 15 156 21 23 3 32 -4 69 -64 23 -37 53 -83 65 -102 13 -19 78
-123 145 -230 67 -107 137 -217 155 -245 18 -27 59 -92 91 -144 33 -51 78
-123 101 -159 24 -35 43 -66 43 -68 0 -15 85 -124 96 -124 8 0 22 -4 32 -10 9
-5 89 -37 177 -71 88 -33 169 -65 180 -70 11 -4 103 -40 205 -79 102 -39 193
-75 202 -81 10 -5 22 -9 28 -9 6 0 29 -8 53 -19 42 -19 157 -65 167 -67 3 0
19 -6 35 -13 17 -7 140 -55 275 -107 135 -52 259 -101 275 -109 17 -7 42 -16
57 -20 14 -4 33 -14 41 -23 11 -14 358 -594 391 -657 6 -11 68 -114 137 -230
69 -116 206 -345 304 -510 98 -165 207 -349 244 -410 36 -60 69 -118 73 -127
13 -31 25 -20 67 60 22 42 58 109 79 147 21 39 60 111 87 160 26 50 56 104 65
120 10 17 37 66 60 110 24 44 82 152 130 240 48 88 106 196 130 240 23 44 51
95 62 112 17 29 18 35 5 47 -8 8 -18 12 -22 8 -5 -4 -5 -2 -1 5 4 7 -1 20 -11
31 -10 10 -36 40 -58 67 -21 28 -47 59 -57 70 -9 11 -88 106 -174 210 -86 105
-176 213 -199 240 -24 28 -151 181 -283 340 -132 160 -355 427 -494 595 -176
211 -251 307 -242 313 7 4 64 27 126 50 95 37 349 136 833 324 50 19 203 79
340 132 138 54 259 101 270 106 11 4 40 16 65 25 99 37 496 191 515 200 11 5
67 28 125 50 57 22 106 43 108 45 3 2 -76 43 -174 90 -99 47 -196 93 -216 103
l-36 18 278 139 279 139 -107 43 c-59 24 -116 47 -127 52 -11 5 -33 14 -50 21
-333 135 -1085 443 -1100 450 -11 5 -110 46 -220 91 -110 44 -249 101 -310
126 -60 25 -146 60 -190 78 -44 18 -141 57 -215 88 -74 30 -186 76 -247 101
-167 68 -310 127 -478 196 -189 78 -203 82 -212 65z"/>
</g>
</svg>
